<svg width="33" height="32" viewBox="0 0 33 32" fill="none" xmlns="http://www.w3.org/2000/svg">
<path fill-rule="evenodd" clip-rule="evenodd" d="M11.5 8C8.46243 8 6 10.4624 6 13.5C6 16.5376 8.46243 19 11.5 19C14.5376 19 17 16.5376 17 13.5C17 10.4624 14.5376 8 11.5 8ZM4 13.5C4 9.35786 7.35786 6 11.5 6C15.6421 6 19 9.35786 19 13.5C19 17.6421 15.6421 21 11.5 21C7.35786 21 4 17.6421 4 13.5Z" fill="black"/>
<path fill-rule="evenodd" clip-rule="evenodd" d="M21.6845 6.00001L21.6876 6C23.6767 6 25.5843 6.79018 26.9909 8.1967C28.3974 9.60323 29.1876 11.5109 29.1876 13.5C29.1876 15.4891 28.3974 17.3968 26.9909 18.8033C25.5843 20.2098 23.6767 21 21.6876 21C21.1353 21 20.6876 20.5523 20.6876 20C20.6876 19.4477 21.1353 19 21.6876 19C23.1462 19 24.5452 18.4205 25.5766 17.3891C26.6081 16.3576 27.1876 14.9587 27.1876 13.5C27.1876 12.0413 26.6081 10.6424 25.5766 9.61092C24.5455 8.57982 23.1472 8.00041 21.6891 8C21.1816 8.00168 20.6766 8.06981 20.1868 8.20264C19.6538 8.3472 19.1045 8.03229 18.9599 7.49926C18.8154 6.96624 19.1303 6.41694 19.6633 6.27237C20.3222 6.09366 21.0018 6.00209 21.6845 6.00001Z" fill="black"/>
<path fill-rule="evenodd" clip-rule="evenodd" d="M11.5001 20.9995C9.89533 20.9995 8.31415 21.3857 6.89009 22.1255C5.46604 22.8653 4.24093 23.9369 3.31827 25.2499C3.00072 25.7018 2.37699 25.8107 1.92512 25.4931C1.47326 25.1756 1.36436 24.5519 1.6819 24.1C2.7891 22.5244 4.25923 21.2385 5.96809 20.3507C7.67696 19.463 9.57438 18.9995 11.5001 18.9995C13.4258 18.9995 15.3232 19.463 17.0321 20.3507C18.7409 21.2385 20.2111 22.5244 21.3183 24.1C21.6358 24.5519 21.5269 25.1756 21.075 25.4931C20.6232 25.8107 19.9994 25.7018 19.6819 25.2499C18.7592 23.9369 17.5341 22.8653 16.1101 22.1255C14.686 21.3857 13.1048 20.9995 11.5001 20.9995Z" fill="black"/>
<path fill-rule="evenodd" clip-rule="evenodd" d="M26.2982 22.1244C24.8741 21.3847 23.2928 20.999 21.6881 21C21.1358 21.0003 20.6878 20.5529 20.6875 20.0006C20.6872 19.4483 21.1346 19.0003 21.6869 19C23.6129 18.9988 25.5109 19.4617 27.2201 20.3496C28.9293 21.2374 30.3994 22.524 31.506 24.1005C31.8233 24.5525 31.7141 25.1762 31.262 25.4935C30.81 25.8108 30.1863 25.7016 29.869 25.2495C28.9471 23.9361 27.7222 22.8641 26.2982 22.1244Z" fill="black"/>
</svg>
