<svg width="33" height="32" viewBox="0 0 33 32" fill="none" xmlns="http://www.w3.org/2000/svg">
<path fill-rule="evenodd" clip-rule="evenodd" d="M16.5 5C12.634 5 9.5 8.13401 9.5 12C9.5 15.866 12.634 19 16.5 19C20.366 19 23.5 15.866 23.5 12C23.5 8.13401 20.366 5 16.5 5ZM7.5 12C7.5 7.02944 11.5294 3 16.5 3C21.4706 3 25.5 7.02944 25.5 12C25.5 16.9706 21.4706 21 16.5 21C11.5294 21 7.5 16.9706 7.5 12Z" fill="black"/>
<path fill-rule="evenodd" clip-rule="evenodd" d="M16.5002 20.999C14.218 20.999 11.976 21.5998 9.99965 22.741C8.02328 23.8822 6.38215 25.5235 5.24124 27.5001C4.96514 27.9784 4.35356 28.1423 3.87525 27.8662C3.39693 27.5901 3.233 26.9785 3.5091 26.5002C4.82553 24.2196 6.71914 22.3257 8.99957 21.009C11.28 19.6922 13.8669 18.999 16.5002 18.999C19.1335 18.999 21.7203 19.6922 24.0008 21.009C26.2812 22.3257 28.1748 24.2196 29.4912 26.5002C29.7673 26.9785 29.6034 27.5901 29.1251 27.8662C28.6468 28.1423 28.0352 27.9784 27.7591 27.5001C26.6182 25.5235 24.9771 23.8822 23.0007 22.741C21.0243 21.5998 18.7823 20.999 16.5002 20.999Z" fill="black"/>
</svg>
