<svg width="25" height="24" viewBox="0 0 25 24" fill="none" xmlns="http://www.w3.org/2000/svg">
<path fill-rule="evenodd" clip-rule="evenodd" d="M3.5 4.5C3.5 3.67157 4.17157 3 5 3H20C20.8284 3 21.5 3.67157 21.5 4.5V19.5C21.5 20.3284 20.8284 21 20 21H5C4.17157 21 3.5 20.3284 3.5 19.5V4.5ZM20 4.5H5V19.5H20V4.5Z" fill="#6C5CE7"/>
<path fill-rule="evenodd" clip-rule="evenodd" d="M17 1.5C17.4142 1.5 17.75 1.83579 17.75 2.25V5.25C17.75 5.66421 17.4142 6 17 6C16.5858 6 16.25 5.66421 16.25 5.25V2.25C16.25 1.83579 16.5858 1.5 17 1.5Z" fill="#6C5CE7"/>
<path fill-rule="evenodd" clip-rule="evenodd" d="M8 1.5C8.41421 1.5 8.75 1.83579 8.75 2.25V5.25C8.75 5.66421 8.41421 6 8 6C7.58579 6 7.25 5.66421 7.25 5.25V2.25C7.25 1.83579 7.58579 1.5 8 1.5Z" fill="#6C5CE7"/>
<path fill-rule="evenodd" clip-rule="evenodd" d="M3.5 8.25C3.5 7.83579 3.83579 7.5 4.25 7.5H20.75C21.1642 7.5 21.5 7.83579 21.5 8.25C21.5 8.66421 21.1642 9 20.75 9H4.25C3.83579 9 3.5 8.66421 3.5 8.25Z" fill="#6C5CE7"/>
<path fill-rule="evenodd" clip-rule="evenodd" d="M16.4209 11.4857C16.7049 11.7872 16.6908 12.2618 16.3893 12.5459L12.0112 16.6709C11.7216 16.9437 11.2694 16.9429 10.9807 16.6691L8.60884 14.4191C8.30832 14.1341 8.29581 13.6593 8.58088 13.3588C8.86595 13.0583 9.34066 13.0458 9.64117 13.3309L11.4986 15.0929L15.3607 11.4541C15.6622 11.1701 16.1368 11.1842 16.4209 11.4857Z" fill="#6C5CE7"/>
</svg>
