<svg width="189" height="48" viewBox="0 0 189 48" fill="none" xmlns="http://www.w3.org/2000/svg">
<path d="M60.5706 31.0798C57.8338 31.0798 56.2294 28.9408 56.2294 26.5185C56.2294 23.7188 58.054 21.8627 60.5706 21.8627C61.8918 21.8627 62.7727 22.3975 63.5906 22.9009L64.9117 20.5416C63.9681 19.9439 62.3952 19.2203 60.7279 19.2203C56.3867 19.2203 53.2725 22.3032 53.2725 26.5185C53.2725 30.7023 56.4496 33.8167 60.7279 33.8167C62.5525 33.8167 63.8737 33.0617 64.9117 32.4325L63.5906 30.0733C62.7727 30.6394 61.5458 31.0798 60.5706 31.0798ZM69.8506 12.7715H72.6504V33.4392H69.8506V12.7715ZM88.7881 19.6608L88.4735 20.8562C87.7186 20.0383 86.1142 19.2203 84.4155 19.2203C80.9552 19.2203 77.778 21.9571 77.778 26.4241C77.778 31.0484 80.9552 33.8482 84.4155 33.8482C86.1142 33.8482 87.6557 33.0302 88.4735 32.2123L88.7881 33.4707H91.1475V19.7551H88.7881V19.6608ZM88.5364 26.6128C88.5364 29.7587 86.6176 31.1742 84.793 31.1742C82.937 31.1742 80.7979 29.916 80.7979 26.4555C80.7979 24.2536 81.9618 21.8942 84.5728 21.8942C86.5546 21.8942 88.5364 23.4986 88.5364 26.4555V26.6128ZM101.151 27.7139C103.07 28.2172 103.888 28.5947 103.888 29.5699C103.888 30.3249 103.227 31.1113 101.686 31.1113C100.27 31.1113 99.1062 30.608 98.0053 30.0103L96.7469 32.3696C97.7222 32.9673 99.8927 33.7852 101.686 33.7852C104.769 33.7852 106.561 31.709 106.561 29.6014C106.561 25.9837 103.007 25.4175 102.063 25.1029C100.081 24.5682 99.5781 24.1592 99.5781 23.3413C99.5781 22.4604 100.333 21.8627 101.78 21.8627C103.038 21.8627 103.982 22.2402 104.864 22.6807L106.184 20.3214C104.926 19.7866 103.447 19.2203 101.78 19.2203C98.7602 19.2203 96.9357 21.3594 96.9357 23.3413C96.9357 26.5185 99.6096 27.3364 101.151 27.7139ZM116.156 27.7139C118.075 28.2172 118.893 28.5947 118.893 29.5699C118.893 30.3249 118.232 31.1113 116.691 31.1113C115.275 31.1113 114.111 30.608 113.01 30.0103L111.752 32.3696C112.727 32.9673 114.898 33.7852 116.691 33.7852C119.774 33.7852 121.567 31.709 121.567 29.6014C121.567 25.9837 118.012 25.4175 117.069 25.1029C115.086 24.5682 114.583 24.1592 114.583 23.3413C114.583 22.4604 115.339 21.8627 116.785 21.8627C118.044 21.8627 118.987 22.2402 119.869 22.6807L121.19 20.3214C119.931 19.7866 118.453 19.2203 116.785 19.2203C113.766 19.2203 111.941 21.3594 111.941 23.3413C111.909 26.5185 114.615 27.3364 116.156 27.7139ZM133.709 19.2203C132.011 19.2203 130.47 20.0383 129.652 20.8562L129.337 19.5978H126.978V39.133H129.62V32.3382L129.715 32.2752C130.47 33.0932 132.011 33.7538 133.49 33.7538C137.044 33.7538 140.347 31.4573 140.347 26.3297C140.41 21.7369 137.233 19.2203 133.709 19.2203ZM133.395 31.1742C131.571 31.1742 129.652 29.7587 129.652 26.6128V26.4555C129.652 23.4357 131.633 21.8942 133.616 21.8942C136.257 21.8942 137.391 24.2536 137.391 26.4555C137.391 29.916 135.251 31.1742 133.395 31.1742ZM156.014 19.6608L155.699 20.9191C154.944 20.1012 153.34 19.2833 151.641 19.2833C148.18 19.2833 145.003 22.02 145.003 26.487C145.003 31.1113 148.18 33.9111 151.641 33.9111C153.34 33.9111 154.88 33.0932 155.699 32.2752L156.014 33.5336H158.373V19.818H156.014V19.6608ZM155.73 26.6128C155.73 29.7587 153.811 31.1742 151.986 31.1742C150.13 31.1742 147.992 29.916 147.992 26.4555C147.992 24.2536 149.155 21.8942 151.767 21.8942C153.748 21.8942 155.73 23.4986 155.73 26.4555V26.6128ZM168.376 27.7139C170.295 28.2172 171.112 28.5947 171.112 29.5699C171.112 30.3249 170.452 31.1113 168.91 31.1113C167.495 31.1113 166.331 30.608 165.23 30.0103L163.972 32.3696C164.947 32.9673 167.118 33.7852 168.91 33.7852C171.994 33.7852 173.786 31.709 173.786 29.6014C173.786 25.9837 170.232 25.4175 169.289 25.1029C167.306 24.5682 166.803 24.1592 166.803 23.3413C166.803 22.4604 167.558 21.8627 169.005 21.8627C170.264 21.8627 171.207 22.2402 172.089 22.6807L173.409 20.3214C172.151 19.7866 170.673 19.2203 169.005 19.2203C165.985 19.2203 164.16 21.3594 164.16 23.3413C164.129 26.5185 166.834 27.3364 168.376 27.7139ZM183.35 27.7139C185.269 28.2172 186.086 28.5947 186.086 29.5699C186.086 30.3249 185.426 31.1113 183.884 31.1113C182.469 31.1113 181.305 30.608 180.204 30.0103L178.946 32.3696C179.921 32.9673 182.092 33.7852 183.884 33.7852C186.968 33.7852 188.76 31.709 188.76 29.6014C188.76 25.9837 185.206 25.4175 184.262 25.1029C182.28 24.5682 181.777 24.1592 181.777 23.3413C181.777 22.4604 182.532 21.8627 183.979 21.8627C185.237 21.8627 186.181 22.2402 187.061 22.6807L188.383 20.3214C187.125 19.7866 185.646 19.2203 183.979 19.2203C180.959 19.2203 179.134 21.3594 179.134 23.3413C179.134 26.5185 181.84 27.3364 183.35 27.7139Z" fill="#333333"/>
<path d="M29.2669 8.39941H24.2022C23.3214 8.39941 22.4406 9.05994 22.3462 9.94077L21.5912 13.5585C21.4969 14.219 20.9306 14.6594 20.27 14.6594H14.6706C7.08928 14.7538 0.0742188 20.4791 0.0742188 28.5951C0.0742188 35.8305 6.11409 42.4366 14.7964 42.4366H20.5217C21.4025 42.4366 22.2833 41.776 22.3777 40.8951L23.1327 37.2775C23.2271 36.6169 23.7933 36.1765 24.4538 36.1765H29.3927C37.8549 36.1765 44.1149 29.6962 44.1149 22.3351C43.9891 14.219 37.0684 8.39941 29.2669 8.39941ZM29.141 30.7972H23.1956C22.3148 30.7972 21.5598 31.4579 21.3396 32.3387L20.5846 35.8619C20.4902 36.5225 19.9239 36.963 19.2634 36.963H14.8593C10.3609 36.963 5.51639 33.7857 5.51639 28.5008C5.51639 23.6563 9.79463 20.0387 14.8593 20.0387H21.6542C22.535 20.0387 23.29 19.3781 23.5102 18.4973L24.2651 14.974C24.3595 14.3134 24.9257 13.873 25.5863 13.873H29.1096C33.8282 13.873 38.4525 17.1761 38.4525 22.3351C38.3896 27.0538 34.3316 30.7972 29.141 30.7972Z" fill="#333333"/>
</svg>
