<svg width="160" height="48" viewBox="0 0 160 48" fill="none" xmlns="http://www.w3.org/2000/svg">
<path d="M38.8878 9.33887C34.8711 9.33887 33.4613 12.1319 33.4613 14.7387V16.3347H32.6101C31.9983 16.3347 31.5195 16.8135 31.5195 17.4253C31.5195 18.0371 31.9983 18.5159 32.6101 18.5159H33.4613V29.5284C33.4613 30.1668 33.9667 30.6988 34.6317 30.6988C35.2702 30.6988 35.8022 30.1934 35.8022 29.5284V18.5159H38.3824C38.9942 18.5159 39.473 18.0371 39.473 17.4253C39.473 16.8135 38.9942 16.3347 38.3824 16.3347H35.8022V14.7387C35.8022 13.2757 36.3342 11.5467 38.9144 11.5467C39.5262 11.5467 40.005 11.0679 40.005 10.4561C39.9784 9.81767 39.4996 9.33887 38.8878 9.33887Z" fill="#4D4D4D"/>
<path d="M47.9336 15.9614C46.2046 15.9614 44.7416 16.6796 43.917 17.85V17.2382C43.917 16.5998 43.4116 16.0678 42.7466 16.0678C42.1082 16.0678 41.5762 16.5732 41.5762 17.2382V29.5275C41.5762 30.1659 42.0816 30.6979 42.7466 30.6979C43.385 30.6979 43.917 30.1925 43.917 29.5275V22.7445C43.917 19.8982 45.4332 18.1958 47.9336 18.1958C48.5454 18.1958 49.0508 17.6904 49.0508 17.0786C49.0774 16.4668 48.572 15.9614 47.9336 15.9614Z" fill="#4D4D4D"/>
<path d="M62.1645 21.9996C62.1645 21.3346 62.0581 19.6056 61.0473 18.1692C60.0098 16.6796 58.3872 15.9082 56.1794 15.9082C52.083 15.9082 49.7422 18.6214 49.7422 23.3562C49.7422 28.2507 52.083 30.8575 56.472 30.8575C59.4246 30.8575 61.0472 29.3945 61.3399 29.1019C61.5261 28.9157 61.7389 28.6763 61.7389 28.2773C61.7389 27.6921 61.2601 27.2133 60.6748 27.2133C60.3822 27.2133 60.196 27.2931 60.0098 27.4261C59.1586 28.0645 58.1744 28.7029 56.4986 28.7029C53.8652 28.7029 52.1894 26.9739 52.1096 24.1543H60.7546C62.1645 24.1277 62.1645 22.8508 62.1645 21.9996ZM56.1794 18.0362C58.5734 18.0362 59.8236 19.3928 59.8768 22.0528H52.1362C52.349 19.4726 53.7854 18.0362 56.1794 18.0362Z" fill="#4D4D4D"/>
<path d="M69.985 22.1866C68.2559 21.6014 66.7663 21.0694 66.7663 19.7926C66.7663 18.3828 68.3357 18.17 69.2667 18.17C70.9426 18.17 71.7672 18.7552 72.4322 19.3936C72.645 19.6064 72.911 19.7128 73.2036 19.7128C73.7888 19.7128 74.2676 19.234 74.2676 18.6488C74.2676 18.3296 74.1346 18.1168 74.0282 17.9572C73.044 16.6538 71.3682 15.9355 69.2667 15.9355C66.2875 15.9355 64.4521 17.4252 64.4521 19.7926C64.4521 22.692 67.0057 23.5698 69.2401 24.3146C70.9426 24.8998 72.4056 25.3786 72.4056 26.6288C72.4056 28.3312 70.5169 28.5972 69.3731 28.5972C67.8303 28.5972 66.6333 28.1184 65.6491 27.1608C65.3565 26.8682 65.0373 26.815 64.8511 26.815C64.2659 26.815 63.7871 27.2938 63.7871 27.879C63.7871 28.1184 63.8669 28.3046 64.0531 28.5706C64.9309 29.6878 66.9259 30.8316 69.3731 30.8316C72.7248 30.8316 74.7198 29.2622 74.7198 26.6554C74.7198 23.8358 72.2194 22.958 69.985 22.1866Z" fill="#4D4D4D"/>
<path d="M83.7904 15.9085C82.1944 15.9085 80.758 16.5469 79.96 17.5577V9.68408C79.96 9.04567 79.4545 8.51367 78.7895 8.51367C78.1511 8.51367 77.6191 9.01907 77.6191 9.68408V29.5544C77.6191 30.1928 78.1245 30.7248 78.7895 30.7248C79.4279 30.7248 79.96 30.2194 79.96 29.5544V22.0797C79.96 19.3931 81.2634 18.0365 83.7904 18.0365C86.2376 18.0365 87.2484 19.1537 87.2484 21.8669V29.5544C87.2484 30.1928 87.7538 30.7248 88.4188 30.7248C89.0572 30.7248 89.5892 30.2194 89.5892 29.5544V21.4679C89.536 17.7705 87.5942 15.9085 83.7904 15.9085Z" fill="#4D4D4D"/>
<path d="M108.928 16.0952C108.422 16.0952 108.023 16.3878 107.837 16.8666L104.512 26.3363L101.799 16.8666C101.692 16.4942 101.293 16.0952 100.708 16.0952C100.123 16.0952 99.724 16.4942 99.6176 16.8666L96.9044 26.3097L93.5794 16.84C93.3932 16.3612 92.9942 16.0952 92.4888 16.0952C91.8504 16.0952 91.3184 16.6006 91.3184 17.2656C91.3184 17.4252 91.345 17.5848 91.4248 17.7444L95.867 29.9539C96.0532 30.4327 96.4522 30.6987 96.9576 30.6987C97.4896 30.6987 97.9418 30.3529 98.0748 29.8741L100.682 20.9098L103.288 29.8741C103.421 30.3529 103.9 30.6987 104.406 30.6987C104.911 30.6987 105.31 30.4061 105.496 29.9273L109.938 17.7178C110.018 17.5582 110.045 17.372 110.045 17.2124C110.071 16.6006 109.566 16.0952 108.928 16.0952Z" fill="#4D4D4D"/>
<path d="M117.385 15.9082C113.156 15.9082 110.842 18.5682 110.842 23.3562C110.842 28.1975 113.156 30.8575 117.385 30.8575C121.615 30.8575 123.929 28.1975 123.929 23.3562C123.929 18.5416 121.588 15.9082 117.385 15.9082ZM117.385 28.7295C114.566 28.7295 113.183 26.9739 113.183 23.3828C113.183 19.845 114.592 18.0628 117.385 18.0628C120.178 18.0628 121.588 19.845 121.588 23.3828C121.588 26.9739 120.205 28.7295 117.385 28.7295Z" fill="#4D4D4D"/>
<path d="M132.922 15.9614C131.193 15.9614 129.73 16.6796 128.905 17.85V17.2382C128.905 16.5998 128.4 16.0678 127.735 16.0678C127.096 16.0678 126.564 16.5732 126.564 17.2382V29.5275C126.564 30.1659 127.07 30.6979 127.735 30.6979C128.373 30.6979 128.905 30.1925 128.905 29.5275V22.7445C128.905 19.8982 130.421 18.1958 132.922 18.1958C133.534 18.1958 134.039 17.6904 134.039 17.0786C134.039 16.4668 133.534 15.9614 132.922 15.9614Z" fill="#4D4D4D"/>
<path d="M141.752 22.0265L146.566 18.1695C146.965 17.8503 147.019 17.4513 147.019 17.2385C147.019 16.6001 146.513 16.0681 145.848 16.0681C145.662 16.0681 145.343 16.0947 145.05 16.3607L138.214 21.9467V9.68408C138.214 9.04567 137.708 8.51367 137.043 8.51367C136.405 8.51367 135.873 9.01907 135.873 9.68408V29.5544C135.873 30.1928 136.378 30.7248 137.043 30.7248C137.682 30.7248 138.214 30.2194 138.214 29.5544V24.7664L139.836 23.463L145.077 30.1928C145.369 30.5386 145.688 30.7248 146.061 30.7248C146.699 30.7248 147.231 30.2194 147.231 29.5544C147.231 29.3682 147.205 29.1022 146.992 28.8362L141.752 22.0265Z" fill="#4D4D4D"/>
<path d="M154.866 22.1866C153.137 21.6014 151.647 21.0694 151.647 19.7926C151.647 18.3828 153.217 18.17 154.148 18.17C155.823 18.17 156.648 18.7552 157.313 19.3936C157.526 19.6064 157.792 19.7128 158.084 19.7128C158.67 19.7128 159.148 19.234 159.148 18.6488C159.148 18.303 158.962 18.0636 158.909 17.9572C157.925 16.6538 156.249 15.9355 154.148 15.9355C151.168 15.9355 149.333 17.4252 149.333 19.7926C149.333 22.692 151.887 23.5698 154.121 24.3146C155.823 24.8998 157.286 25.3786 157.286 26.6288C157.286 28.3312 155.398 28.5972 154.254 28.5972C152.711 28.5972 151.514 28.1184 150.53 27.1608C150.237 26.8682 149.945 26.815 149.732 26.815C149.147 26.815 148.668 27.2938 148.668 27.879C148.668 28.1184 148.748 28.3046 148.934 28.5706C149.812 29.6878 151.807 30.8316 154.254 30.8316C157.606 30.8316 159.601 29.2622 159.601 26.6554C159.601 23.8358 157.1 22.958 154.866 22.1866Z" fill="#4D4D4D"/>
<path d="M0.160156 28.8891C0.612359 31.8417 1.99557 34.5017 3.99058 36.4967L8.6456 31.8417C8.6456 27.1335 11.0928 22.5583 15.4552 20.0312L0.160156 28.8891Z" fill="#9B65C3"/>
<path d="M8.6456 31.8425C6.33139 31.8425 3.99058 31.2573 1.83597 30.0071C1.25076 29.6613 0.692159 29.2889 0.160156 28.8633C0.612359 31.8159 1.99557 34.4759 3.99058 36.4709L8.6456 31.8425Z" fill="#9B65C3"/>
<path d="M8.64526 31.8419L3.99023 36.4969C6.01185 38.5185 8.64526 39.9017 11.5979 40.3273L20.4291 25.0322C17.9287 29.3947 13.3535 31.8419 8.64526 31.8419Z" fill="#BE63C5"/>
<path d="M10.4807 38.6778C9.23047 36.5232 8.64526 34.1824 8.64526 31.8682L3.99023 36.5232C6.01185 38.5448 8.64526 39.928 11.5979 40.3536C11.1989 39.8216 10.8265 39.263 10.4807 38.6778Z" fill="#BF63C6"/>
<path d="M25.9891 13.9658L15.482 20.0573C11.1196 22.5843 5.93258 22.3981 1.86275 20.0573C0.692347 22.0523 0.0273438 24.3931 0.0273438 26.8669C0.0273438 27.5585 0.0805436 28.2235 0.186944 28.8885C0.718947 29.3141 1.27755 29.6865 1.86275 30.0323C4.01737 31.2825 6.35818 31.8677 8.67239 31.8677L26.2817 14.2584C26.1753 14.152 26.0955 14.0456 25.9891 13.9658Z" fill="#3278B1"/>
<path d="M1.83522 30.0332C3.98984 31.2834 6.33065 31.8686 8.64486 31.8686C8.64486 27.1603 11.0921 22.5851 15.4545 20.0581L0.132812 28.8894C0.691416 29.2884 1.25002 29.6874 1.83522 30.0332Z" fill="#3278B2"/>
<path d="M1.83541 20.0581C0.665004 22.0531 0 24.3939 0 26.8677C0 27.5594 0.0532004 28.2244 0.159601 28.8894L15.4813 20.0581C11.0923 22.5585 5.90523 22.3989 1.83541 20.0581Z" fill="#45A4EC"/>
<path d="M26.2815 14.2325C26.2017 14.1527 26.0953 14.0463 25.9889 13.9665C25.8559 13.8601 25.7229 13.7537 25.5633 13.6739C25.0579 13.3813 24.4727 13.2217 23.8609 13.2217H13.6464C8.59238 13.2217 4.20335 15.9615 1.83594 20.0313C5.90576 22.3721 11.0928 22.5583 15.4552 20.0313C11.0928 22.5583 8.64558 27.1336 8.64558 31.8418C13.3538 31.8418 17.929 29.3946 20.456 25.0322L26.5209 14.5251C26.4411 14.4187 26.3613 14.3123 26.2815 14.2325Z" fill="#19BB7D"/>
<path d="M15.4818 20.0576L25.9889 13.9928C25.8559 13.8864 25.7229 13.78 25.5633 13.7002L1.83594 20.0576C5.90576 22.3984 11.0928 22.558 15.4818 20.0576Z" fill="#08C7FB"/>
<path d="M23.8609 13.2217H13.6464C8.59238 13.2217 4.20335 15.9615 1.83594 20.0313L25.5633 13.6739C25.0579 13.4079 24.4993 13.2217 23.8609 13.2217Z" fill="#59F2F6"/>
<path d="M20.455 25.0316L26.5198 14.5245C26.44 14.4181 26.3602 14.3383 26.2538 14.2319L8.64453 31.8412C8.64453 34.1554 9.22974 36.4963 10.4799 38.6509C10.8257 39.2361 11.1981 39.7947 11.6237 40.3267C12.2888 40.4331 12.9538 40.4863 13.6454 40.4863C16.1192 40.4863 18.46 39.8213 20.455 38.6509C18.1142 34.581 17.928 29.394 20.455 25.0316Z" fill="#DA3757"/>
<path d="M8.64453 31.8419C8.64453 34.1561 9.22974 36.4969 10.4799 38.6515C10.8257 39.2367 11.1981 39.7953 11.6237 40.3273L20.455 25.0322C17.928 29.3947 13.3528 31.8419 8.64453 31.8419Z" fill="#D33C4E"/>
<path d="M20.4563 25.0322L11.625 40.3539C12.29 40.4603 12.955 40.5135 13.6466 40.5135C16.1204 40.5135 18.4612 39.8485 20.4563 38.6781C18.1154 34.5817 17.9292 29.3947 20.4563 25.0322Z" fill="#EE5A24"/>
<path d="M26.8132 14.9505C26.7334 14.7909 26.627 14.6579 26.5206 14.5249C26.4408 14.4185 26.361 14.3387 26.2546 14.2323C26.1748 14.1525 26.0684 14.0461 25.962 13.9663L15.4815 20.0577C11.1191 22.5848 8.67188 27.16 8.67188 31.8682C13.3801 31.8682 17.9553 29.421 20.4823 25.0586C17.9553 29.421 18.1415 34.608 20.4823 38.6779C24.5522 36.3104 27.292 31.9214 27.292 26.8674V16.6529C27.2654 16.0145 27.1058 15.4293 26.8132 14.9505Z" fill="#8BDF55"/>
<path d="M25.9886 13.9663L15.4815 20.0577C11.1191 22.5848 8.67188 27.16 8.67188 31.8682L26.2812 14.2589C26.1748 14.1525 26.095 14.0461 25.9886 13.9663Z" fill="#25C16F"/>
<path d="M8.64453 31.8412C13.3528 31.8412 17.928 29.394 20.455 25.0316L26.5198 14.5245C26.44 14.4181 26.3602 14.3383 26.2538 14.2319L8.64453 31.8412Z" fill="#8BDF55"/>
<path d="M26.5198 14.5254L20.455 25.0325C17.928 29.3949 18.1142 34.5819 20.455 38.6517L26.8124 14.9244C26.7326 14.7914 26.6262 14.6584 26.5198 14.5254Z" fill="#FFBB00"/>
<path d="M20.4551 38.678C24.5249 36.3106 27.2647 31.9216 27.2647 26.8676V16.6531C27.2647 16.0413 27.1051 15.4561 26.8125 14.9507L20.4551 38.678Z" fill="#FFA800"/>
</svg>
