<svg width="154" height="48" viewBox="0 0 154 48" fill="none" xmlns="http://www.w3.org/2000/svg">
<path d="M61.7097 25.6624L59.0326 18.6559C58.9233 18.3694 58.5058 18.3694 58.3964 18.6559L55.7197 25.6628C55.7007 25.7126 55.6944 25.7662 55.7013 25.8188C55.7082 25.8715 55.7282 25.9218 55.7594 25.9654C55.7907 26.009 55.8323 26.0446 55.8808 26.0692C55.9293 26.0938 55.9832 26.1066 56.0379 26.1066H61.3915C61.4462 26.1066 61.5001 26.0937 61.5486 26.0691C61.5971 26.0445 61.6387 26.0089 61.6699 25.9653C61.7012 25.9216 61.7211 25.8713 61.728 25.8186C61.7349 25.7659 61.7285 25.7124 61.7095 25.6626L61.7097 25.6624ZM62.9464 29.6006H54.4833C54.414 29.6006 54.3465 29.6212 54.2896 29.6596C54.2328 29.698 54.1894 29.7523 54.1653 29.8154L52.4991 34.175C52.475 34.238 52.4317 34.2923 52.3748 34.3307C52.318 34.3691 52.2504 34.3897 52.1812 34.3897H48.513C48.4575 34.3897 48.4029 34.3765 48.354 34.3512C48.305 34.326 48.2631 34.2895 48.2321 34.2449C48.201 34.2003 48.1817 34.149 48.1758 34.0954C48.1699 34.0419 48.1775 33.9878 48.1982 33.9378L56.6434 13.5118C56.6687 13.4507 56.7122 13.3985 56.7683 13.3617C56.8245 13.3249 56.8907 13.3053 56.9584 13.3053H60.4708C60.6092 13.3053 60.7338 13.387 60.7856 13.5118L69.2306 33.9376C69.2513 33.9876 69.2591 34.0418 69.2532 34.0953C69.2473 34.1489 69.228 34.2003 69.1969 34.245C69.1659 34.2896 69.124 34.3262 69.0749 34.3515C69.0259 34.3767 68.9713 34.3899 68.9157 34.3899H65.2483C65.179 34.3899 65.1114 34.3693 65.0545 34.3309C64.9977 34.2924 64.9543 34.238 64.9303 34.175L63.2639 29.8154C63.2398 29.7523 63.1964 29.698 63.1396 29.6596C63.0827 29.6212 63.0152 29.6006 62.9459 29.6006H62.9464ZM70.9492 20.4739H74.0865C74.1765 20.4739 74.2628 20.5086 74.3264 20.5703C74.39 20.6321 74.4258 20.7159 74.4258 20.8032V34.0603C74.4258 34.1477 74.39 34.2315 74.3264 34.2932C74.2628 34.355 74.1765 34.3897 74.0865 34.3897H70.9492C70.8592 34.3897 70.7729 34.355 70.7093 34.2932C70.6457 34.2315 70.6099 34.1477 70.6099 34.0603V20.803C70.6099 20.7157 70.6457 20.6319 70.7093 20.5701C70.7729 20.5083 70.8592 20.4736 70.9492 20.4736V20.4739ZM85.8679 23.6986C85.8679 23.786 85.8322 23.8698 85.7685 23.9316C85.7049 23.9933 85.6186 24.028 85.5286 24.028H85.4337C83.8824 24.028 82.7446 24.3895 82.0208 25.1123C81.2967 25.8352 80.9352 27.0302 80.9352 28.6968V34.0603C80.9352 34.1477 80.8995 34.2315 80.8359 34.2932C80.7723 34.355 80.686 34.3897 80.596 34.3897H77.4894C77.3994 34.3897 77.3131 34.355 77.2495 34.2932C77.1859 34.2315 77.1502 34.1477 77.1502 34.0603V20.803C77.1502 20.7157 77.1859 20.6319 77.2495 20.5701C77.3131 20.5083 77.3994 20.4736 77.4894 20.4736H80.5648C80.6548 20.4736 80.7411 20.5083 80.8047 20.5701C80.8683 20.6319 80.904 20.7157 80.904 20.803V23.4253H80.9662C81.3385 22.341 81.9279 21.5081 82.7348 20.9253C83.5411 20.3432 84.534 20.0518 85.7127 20.0518H85.8679V23.6984V23.6986ZM94.4463 23.5761C94.3563 23.5761 94.2701 23.6108 94.2064 23.6726C94.1428 23.7344 94.1071 23.8181 94.1071 23.9055V29.4197C94.1071 29.982 94.2202 30.3836 94.4481 30.6245C94.6754 30.8654 95.0685 30.986 95.6269 30.986H95.9392C96.0292 30.986 96.1155 31.0207 96.1791 31.0824C96.2427 31.1442 96.2785 31.228 96.2785 31.3153V34.0902C96.2785 34.1776 96.2427 34.2613 96.1791 34.3231C96.1155 34.3849 96.0292 34.4196 95.9392 34.4196H94.6031C93.2173 34.4196 92.1523 34.0733 91.4078 33.3805C90.663 32.6877 90.2908 31.659 90.2908 30.2932V23.9055C90.2908 23.8181 90.255 23.7344 90.1914 23.6726C90.1278 23.6108 90.0415 23.5761 89.9515 23.5761H87.9932C87.9032 23.5761 87.8169 23.5414 87.7533 23.4797C87.6897 23.4179 87.6539 23.3341 87.6539 23.2467V20.803C87.6539 20.7157 87.6897 20.6319 87.7533 20.5701C87.8169 20.5083 87.9032 20.4736 87.9932 20.4736H89.9517C90.0417 20.4736 90.128 20.4389 90.1916 20.3772C90.2553 20.3154 90.291 20.2316 90.291 20.1443V15.2307C90.291 15.1433 90.3267 15.0595 90.3904 14.9977C90.454 14.936 90.5403 14.9013 90.6302 14.9013H93.7676C93.8576 14.9013 93.9439 14.936 94.0075 14.9977C94.0711 15.0595 94.1068 15.1433 94.1068 15.2307V20.1443C94.1068 20.2316 94.1426 20.3154 94.2062 20.3772C94.2698 20.4389 94.3561 20.4736 94.4461 20.4736H96.7147C96.8047 20.4736 96.891 20.5083 96.9546 20.5701C97.0182 20.6319 97.054 20.7157 97.054 20.803V23.247C97.054 23.3343 97.0182 23.4181 96.9546 23.4799C96.891 23.5416 96.8047 23.5763 96.7147 23.5763H94.4463V23.5761ZM108.813 30.2631C109.526 29.5402 109.883 28.5964 109.883 27.4316C109.883 26.2673 109.526 25.3231 108.813 24.6003C108.099 23.8774 107.163 23.516 106.005 23.516C104.846 23.516 103.911 23.8774 103.197 24.6003C102.484 25.3231 102.127 26.2673 102.127 27.4316C102.127 28.5964 102.484 29.5402 103.197 30.2631C103.911 30.986 104.846 31.3474 106.005 31.3474C107.163 31.3474 108.099 30.986 108.813 30.2631ZM101.568 33.9679C100.514 33.3858 99.6809 32.5371 99.0712 31.4227C98.4607 30.3083 98.1559 28.9781 98.1559 27.4316C98.1559 25.8857 98.4607 24.555 99.0712 23.4406C99.6809 22.3263 100.514 21.4782 101.568 20.8955C102.623 20.3131 103.781 20.022 105.043 20.022C106.16 20.022 107.116 20.2328 107.913 20.6544C108.709 21.0759 109.345 21.6686 109.821 22.4317H109.883V20.803C109.883 20.7157 109.918 20.6319 109.982 20.5701C110.046 20.5083 110.132 20.4736 110.222 20.4736H113.328C113.418 20.4736 113.505 20.5083 113.568 20.5701C113.632 20.6319 113.668 20.7157 113.668 20.803V34.0601C113.668 34.1475 113.632 34.2312 113.568 34.293C113.505 34.3548 113.418 34.3895 113.328 34.3895H110.222C110.132 34.3895 110.046 34.3548 109.982 34.293C109.918 34.2312 109.883 34.1475 109.883 34.0601V32.4317H109.821C109.345 33.1952 108.709 33.7872 107.913 34.2088C107.116 34.6304 106.16 34.8412 105.043 34.8412C103.781 34.8412 102.623 34.55 101.568 33.9679ZM126.587 30.2631C127.3 29.5402 127.657 28.5964 127.657 27.4316C127.657 26.2673 127.3 25.3231 126.587 24.6003C125.873 23.8774 124.937 23.516 123.779 23.516C122.621 23.516 121.685 23.8774 120.972 24.6003C120.258 25.3231 119.901 26.2673 119.901 27.4316C119.901 28.5964 120.258 29.5402 120.972 30.2631C121.685 30.986 122.621 31.3474 123.779 31.3474C124.937 31.3474 125.873 30.986 126.587 30.2631ZM121.871 34.2088C121.075 33.7872 120.439 33.1952 119.963 32.4317H119.901V34.0601C119.901 34.1475 119.865 34.2312 119.802 34.293C119.738 34.3548 119.652 34.3895 119.562 34.3895H116.425C116.335 34.3895 116.248 34.3548 116.185 34.293C116.121 34.2312 116.085 34.1475 116.085 34.0601V13.6341C116.085 13.5467 116.121 13.4629 116.185 13.4012C116.248 13.3394 116.335 13.3047 116.425 13.3047H119.562C119.652 13.3047 119.738 13.3394 119.802 13.4012C119.865 13.4629 119.901 13.5467 119.901 13.6341V22.4314H119.963C120.439 21.6684 121.075 21.0759 121.871 20.6544C122.667 20.2325 123.624 20.0217 124.741 20.0217C126.002 20.0217 127.161 20.3129 128.216 20.8952C129.27 21.478 130.103 22.326 130.713 23.4402C131.323 24.5552 131.628 25.8859 131.628 27.4318C131.628 28.9783 131.323 30.3083 130.713 31.4229C130.103 32.5373 129.271 33.386 128.216 33.9679C127.161 34.5502 126.003 34.8416 124.741 34.8416C123.624 34.8416 122.668 34.6308 121.871 34.209L121.871 34.2088ZM136.914 34.3897H133.777C133.687 34.3897 133.601 34.355 133.537 34.2932C133.473 34.2315 133.438 34.1477 133.438 34.0603V13.6347C133.438 13.5474 133.473 13.4636 133.537 13.4018C133.601 13.34 133.687 13.3053 133.777 13.3053H136.914C137.004 13.3053 137.091 13.34 137.154 13.4018C137.218 13.4636 137.254 13.5474 137.254 13.6347V34.0603C137.254 34.1477 137.218 34.2315 137.154 34.2932C137.091 34.355 137.004 34.3897 136.914 34.3897ZM144.315 23.6969C143.795 24.0908 143.443 24.6595 143.262 25.4035C143.212 25.6086 143.377 25.8053 143.594 25.8053H149.564C149.772 25.8053 149.934 25.6253 149.901 25.4268C149.782 24.723 149.471 24.162 148.968 23.7421C148.379 23.2503 147.608 23.0043 146.657 23.0043C145.706 23.0043 144.925 23.2351 144.315 23.6969ZM151.962 21.9648C153.182 23.2604 153.793 25.0928 153.793 27.4619V27.8554C153.793 27.9427 153.757 28.0265 153.693 28.0883C153.63 28.15 153.543 28.1847 153.453 28.1847H143.479C143.429 28.1848 143.38 28.1955 143.335 28.2159C143.29 28.2363 143.25 28.266 143.218 28.3029C143.186 28.3398 143.163 28.3831 143.15 28.4296C143.137 28.4762 143.134 28.525 143.143 28.5725C143.302 29.4526 143.703 30.1518 144.346 30.6698C145.08 31.2626 146.006 31.5584 147.122 31.5584C148.564 31.5584 149.899 31.0121 151.126 29.9192C151.276 29.7857 151.514 29.814 151.63 29.9763L153.155 32.1019C153.203 32.168 153.224 32.2488 153.215 32.3291C153.205 32.4093 153.165 32.4834 153.103 32.5371C152.355 33.1733 151.522 33.7102 150.628 34.1337C149.635 34.6053 148.467 34.8416 147.122 34.8416C145.571 34.8416 144.216 34.5351 143.058 33.9229C141.9 33.3107 141 32.4473 140.359 31.3325C139.718 30.2181 139.398 28.928 139.398 27.4619C139.398 25.9964 139.708 24.7013 140.328 23.5763C140.949 22.4521 141.817 21.5786 142.934 20.9558C144.051 20.3338 145.354 20.0222 146.843 20.0222C149.035 20.0222 150.742 20.6699 151.962 21.9648ZM74.8356 15.5728C74.8356 16.8152 73.7982 17.8224 72.5183 17.8224C71.2382 17.8224 70.2008 16.8152 70.2008 15.5725C70.2008 14.3299 71.2384 13.3227 72.5183 13.3227C73.7982 13.3227 74.8356 14.3299 74.8356 15.5725" fill="#333333"/>
<path d="M17.8671 7.3644L2.94929 13.3575C2.11972 13.6908 2.12831 14.8351 2.96309 15.1563L17.9431 20.9239C19.2593 21.4307 20.725 21.4307 22.0412 20.9239L37.0214 15.1561C37.856 14.8351 37.865 13.691 37.035 13.3577L22.1176 7.36418C20.7567 6.81741 19.2278 6.81741 17.8669 7.36418" fill="#FCB400"/>
<path d="M21.3203 24.0732V38.4816C21.3203 39.1667 22.0321 39.6361 22.6882 39.3836L39.3805 33.093C39.5667 33.0214 39.7264 32.8971 39.8389 32.7362C39.9514 32.5754 40.0115 32.3854 40.0115 32.191V17.7828C40.0115 17.0975 39.2998 16.6283 38.6436 16.8808L21.9513 23.1714C21.7652 23.2431 21.6055 23.3674 21.493 23.5282C21.3805 23.6891 21.3203 23.879 21.3203 24.0734" fill="#18BFFF"/>
<path d="M17.4233 24.8163L12.4694 27.1386L11.9664 27.3747L1.50897 32.2396C0.846308 32.55 0 32.081 0 31.3661V17.8428C0 17.5841 0.136603 17.3608 0.319797 17.1928C0.394951 17.1202 0.480214 17.0581 0.573101 17.0084C0.822787 16.8628 1.17922 16.8239 1.48228 16.9403L17.34 23.0408C18.1461 23.3513 18.2094 24.4479 17.4233 24.8165" fill="#F82B60"/>
<path d="M17.4238 24.8163L12.4699 27.1386L0.320312 17.1926C0.395482 17.12 0.480744 17.058 0.573617 17.0084C0.823303 16.8628 1.17974 16.8239 1.4828 16.9403L17.3406 23.0408C18.1466 23.3513 18.21 24.4479 17.4238 24.8165" fill="black" fill-opacity="0.25"/>
</svg>
