<svg width="324" height="209" viewBox="0 0 324 209" fill="none" xmlns="http://www.w3.org/2000/svg">
<path d="M3.45734 88.2953C3.16937 88.2953 2.92081 88.0728 2.90761 87.7851L0.00206979 52.8492C-0.0239652 52.5481 0.198387 52.2734 0.512566 52.2472C0.800535 52.221 1.08851 52.4435 1.11454 52.7576L4.02008 87.6934C4.04629 87.9944 3.82377 88.2691 3.50959 88.2953C3.49657 88.2953 3.48355 88.2953 3.45734 88.2953Z" fill="#407BFF"/>
<path d="M5.18638 109.048C4.89859 109.048 4.64985 108.826 4.63683 108.538L3.75991 97.9655C3.7337 97.6646 3.95623 97.3899 4.27023 97.3636C4.5582 97.3244 4.84617 97.5599 4.87238 97.8738L5.7493 108.446C5.77534 108.747 5.55298 109.022 5.2388 109.048C5.22578 109.048 5.21259 109.048 5.18638 109.048Z" fill="#407BFF"/>
<path d="M299.625 208.462H29.399C22.5017 208.462 16.3898 202.822 15.8138 195.927L0.592646 13.0433C0.0167091 6.14776 5.18642 0.508301 12.0838 0.508301H282.31C289.206 0.508301 295.319 6.14776 295.894 13.0433L311.116 195.927C311.691 202.822 306.523 208.462 299.625 208.462Z" fill="white"/>
<path d="M299.623 208.988H29.3971C22.2249 208.988 15.8903 203.151 15.3014 195.98L0.0802058 13.0977C-0.207763 9.60409 0.891686 6.31984 3.18207 3.83377C5.45925 1.36079 8.62655 0 12.0948 0H282.32C289.492 0 295.827 5.83573 296.416 13.0192L311.638 195.903C311.925 199.396 310.825 202.681 308.535 205.166C306.259 207.639 303.09 209 299.623 209V208.988ZM12.0948 1.03367C8.91452 1.03367 6.02199 2.2767 3.94113 4.52725C1.86008 6.79089 0.852459 9.80034 1.11422 12.993L16.3354 195.877C16.8851 202.523 22.7485 207.927 29.3971 207.927H299.623C302.804 207.927 305.696 206.684 307.777 204.434C309.858 202.169 310.866 199.16 310.604 195.968L295.382 13.0846C294.833 6.43762 288.97 1.03367 282.32 1.03367H12.0948Z" fill="#407BFF"/>
<path d="M282.323 0.508301H12.0976C5.20024 0.508301 0.0305313 6.14776 0.606293 13.0433H295.909C295.332 6.14776 289.22 0.508301 282.323 0.508301Z" fill="#A29BFE"/>
<path d="M18.4177 6.77541C18.5355 8.26705 17.4361 9.48392 15.9442 9.48392C14.4521 9.48392 13.1433 8.28013 13.0124 6.77541C12.8815 5.27068 13.994 4.06689 15.4861 4.06689C16.978 4.06689 18.2868 5.27068 18.4177 6.77541Z" fill="white"/>
<path d="M29.4118 6.77541C29.5295 8.26705 28.4302 9.48392 26.9381 9.48392C25.4462 9.48392 24.1374 8.28013 24.0066 6.77541C23.8757 5.27068 24.9881 4.06689 26.4801 4.06689C27.9721 4.06689 29.2809 5.27068 29.4118 6.77541Z" fill="white"/>
<path d="M40.406 6.77541C40.5236 8.26705 39.4244 9.48392 37.9323 9.48392C36.4404 9.48392 35.1316 8.28013 35.0007 6.77541C34.8698 5.28376 35.9823 4.06689 37.4742 4.06689C38.9663 4.06689 40.2751 5.27068 40.406 6.77541Z" fill="white"/>
<path d="M276.167 184.491H48.8567C43.373 184.491 38.5173 180.003 38.0592 174.534L27.445 46.9721C26.9869 41.4896 31.0964 37.0146 36.5803 37.0146H263.892C269.375 37.0146 274.23 41.5028 274.689 46.9721L285.302 174.534C285.761 180.017 281.652 184.491 276.167 184.491Z" fill="#F0F0F0"/>
<path opacity="0.1" d="M205.878 59.3508L135.451 144.113C125.794 155.745 131.905 173.462 146.694 176.668L260.912 201.372C276.683 204.785 289.864 189.189 283.869 174.207L240.077 64.7417C234.409 50.5711 215.641 47.6139 205.878 59.3508Z" fill="#263238"/>
<path opacity="0.1" d="M49.1345 71.2303L24.6077 137.268C21.3357 146.074 28.4164 155.273 37.7742 154.357L109.405 147.33C119.442 146.349 124.403 134.625 118.107 126.735L71.0042 67.7237C64.8269 59.9906 52.5765 61.9533 49.1345 71.2303Z" fill="#263238"/>
<path d="M230.165 38.0103L164.332 133.58C155.367 146.599 163.311 164.486 178.978 166.579L299.988 182.686C316.781 184.925 329.279 167.509 321.766 152.317L266.588 40.6535C259.428 26.1688 239.327 24.7163 230.165 38.0233V38.0103Z" fill="#6C5CE7"/>
<path d="M181.863 157.995C177.465 157.406 173.631 154.632 171.629 150.576C169.625 146.519 169.848 142.018 172.243 138.538L238.245 42.7324C240.641 39.2519 244.697 37.5378 249.095 38.1136C253.493 38.7024 257.328 41.4763 259.33 45.5325L314.652 157.484C316.654 161.54 316.433 166.042 314.037 169.522C311.643 173.003 307.584 174.717 303.186 174.141L181.863 157.995Z" fill="white"/>
<path d="M243.477 71.9929L251.185 73.0137C256.146 73.6679 259.955 78.1821 259.707 83.0756L259.197 93.1246C259.182 93.4911 259.13 93.8574 259.065 94.2237L253.581 124.515C252.795 128.885 248.804 131.698 244.276 131.096C239.734 130.494 236.083 126.634 235.769 122.107L233.543 90.8087C233.517 90.4422 233.517 90.0891 233.543 89.7226L234.067 79.6606C234.315 74.7539 238.543 71.3257 243.503 71.9799L243.477 71.9929ZM242.861 139.457L244.969 139.732C249.405 140.321 252.809 144.351 252.586 148.734C252.364 153.117 248.582 156.192 244.145 155.604L242.038 155.329C237.602 154.74 234.198 150.71 234.421 146.327C234.643 141.943 238.425 138.868 242.861 139.457Z" fill="#6C5CE7"/>
<path d="M74.4483 52.6137L56.3739 121.138C53.9788 130.205 61.897 138.658 71.1109 136.865L141.222 123.192C151.078 121.268 154.925 109.231 148.016 101.956L95.9772 47.105C89.1201 39.8692 76.9873 42.9833 74.4351 52.6137H74.4483Z" fill="#A29BFE"/>
<path d="M70.9764 131.32C68.4243 131.818 65.7805 130.928 63.8828 128.926C61.985 126.937 61.252 124.255 61.9064 121.756L80.0331 53.0484C80.6875 50.5623 82.6114 48.7697 85.1497 48.2725C87.7022 47.7753 90.3461 48.665 92.2442 50.667L144.413 105.661C146.311 107.65 147.043 110.333 146.388 112.832C145.734 115.318 143.811 117.11 141.271 117.608L70.9764 131.32Z" fill="white"/>
<path d="M88.5595 69.1927L93.0224 68.316C95.888 67.7534 98.8733 69.6637 99.6702 72.5816L101.32 78.5612C101.385 78.7837 101.424 79.0062 101.464 79.2285L104.251 98.0181C104.657 100.727 102.983 103.134 100.365 103.657C97.7334 104.168 94.9715 102.611 93.9249 100.02L86.6737 82.1203C86.5963 81.9108 86.5172 81.7015 86.4644 81.4923L84.8161 75.4994C84.0178 72.5816 85.6939 69.7684 88.5595 69.2058V69.1927ZM101.202 108.813L102.42 108.577C104.984 108.08 107.655 109.781 108.374 112.398C109.094 115.002 107.59 117.527 105.023 118.024L103.806 118.26C101.241 118.757 98.5707 117.056 97.8512 114.439C97.1317 111.835 98.6376 109.31 101.202 108.813Z" fill="#A29BFE"/>
</svg>
