<svg width="33" height="32" viewBox="0 0 33 32" fill="none" xmlns="http://www.w3.org/2000/svg">
<path fill-rule="evenodd" clip-rule="evenodd" d="M3.5 11C3.5 9.89543 4.39543 9 5.5 9H23.5C24.6046 9 25.5 9.89543 25.5 11V25C25.5 26.1046 24.6046 27 23.5 27H5.5C4.39543 27 3.5 26.1046 3.5 25V11ZM23.5 11H5.5V25H23.5V11Z" fill="black"/>
<path fill-rule="evenodd" clip-rule="evenodd" d="M8.08579 5.58579C8.46086 5.21071 8.96957 5 9.5 5H27.5C28.0304 5 28.5391 5.21071 28.9142 5.58579C29.2893 5.96086 29.5 6.46957 29.5 7V21C29.5 21.5304 29.2893 22.0391 28.9142 22.4142C28.5391 22.7893 28.0304 23 27.5 23H24.5C23.9477 23 23.5 22.5523 23.5 22C23.5 21.4477 23.9477 21 24.5 21H27.5V7L9.5 7L9.5 10C9.5 10.5523 9.05228 11 8.5 11C7.94772 11 7.5 10.5523 7.5 10V7C7.5 6.46957 7.71071 5.96086 8.08579 5.58579Z" fill="black"/>
<path fill-rule="evenodd" clip-rule="evenodd" d="M3.5 14C3.5 13.4477 3.94772 13 4.5 13H24.5C25.0523 13 25.5 13.4477 25.5 14C25.5 14.5523 25.0523 15 24.5 15H4.5C3.94772 15 3.5 14.5523 3.5 14Z" fill="black"/>
</svg>
