<svg width="33" height="32" viewBox="0 0 33 32" fill="none" xmlns="http://www.w3.org/2000/svg">
<path fill-rule="evenodd" clip-rule="evenodd" d="M4.5 6C4.5 4.89543 5.39543 4 6.5 4H26.5C27.6046 4 28.5 4.89543 28.5 6V26C28.5 27.1046 27.6046 28 26.5 28H6.5C5.39543 28 4.5 27.1046 4.5 26V6ZM26.5 6H6.5V26H26.5V6Z" fill="black"/>
<path fill-rule="evenodd" clip-rule="evenodd" d="M22.5 2C23.0523 2 23.5 2.44772 23.5 3V7C23.5 7.55228 23.0523 8 22.5 8C21.9477 8 21.5 7.55228 21.5 7V3C21.5 2.44772 21.9477 2 22.5 2Z" fill="black"/>
<path fill-rule="evenodd" clip-rule="evenodd" d="M10.5 2C11.0523 2 11.5 2.44772 11.5 3V7C11.5 7.55228 11.0523 8 10.5 8C9.94772 8 9.5 7.55228 9.5 7V3C9.5 2.44772 9.94772 2 10.5 2Z" fill="black"/>
<path fill-rule="evenodd" clip-rule="evenodd" d="M4.5 11C4.5 10.4477 4.94772 10 5.5 10H27.5C28.0523 10 28.5 10.4477 28.5 11C28.5 11.5523 28.0523 12 27.5 12H5.5C4.94772 12 4.5 11.5523 4.5 11Z" fill="black"/>
<path fill-rule="evenodd" clip-rule="evenodd" d="M11 16C11 15.4477 11.4477 15 12 15H15.5C15.8844 15 16.2348 15.2203 16.4013 15.5668C16.5678 15.9133 16.521 16.3245 16.2809 16.6247L15.1741 18.0082C15.4983 18.2256 15.7779 18.5048 15.9962 18.8308C16.2709 19.2411 16.4401 19.7128 16.4888 20.2041C16.5375 20.6954 16.4642 21.1912 16.2753 21.6474C16.0865 22.1035 15.788 22.5061 15.4063 22.8192C15.0246 23.1324 14.5716 23.3465 14.0873 23.4426C13.603 23.5387 13.1025 23.5138 12.6301 23.3701C12.1578 23.2264 11.7282 22.9683 11.3795 22.6188C10.9895 22.2278 10.9903 21.5946 11.3812 21.2045C11.7722 20.8145 12.4054 20.8153 12.7955 21.2062C12.9117 21.3228 13.0549 21.4088 13.2123 21.4567C13.3698 21.5046 13.5366 21.5129 13.698 21.4809C13.8595 21.4488 14.0105 21.3775 14.1377 21.2731C14.265 21.1687 14.3645 21.0345 14.4274 20.8824C14.4903 20.7304 14.5148 20.5651 14.4985 20.4014C14.4823 20.2376 14.4259 20.0804 14.3343 19.9436C14.2428 19.8069 14.1189 19.6948 13.9736 19.6174C13.8284 19.5401 13.6663 19.4997 13.5017 19.5C13.117 19.5007 12.766 19.2806 12.5991 18.934C12.4321 18.5874 12.4788 18.1757 12.7191 17.8753L13.4194 17H12C11.4477 17 11 16.5523 11 16Z" fill="black"/>
<path fill-rule="evenodd" clip-rule="evenodd" d="M20.9473 15.1056C21.2861 15.275 21.5001 15.6212 21.5001 16V22.5C21.5001 23.0523 21.0523 23.5 20.5001 23.5C19.9478 23.5 19.5001 23.0523 19.5001 22.5V18L19.1001 18.3C18.6582 18.6314 18.0314 18.5418 17.7001 18.1C17.3687 17.6582 17.4582 17.0314 17.9001 16.7L19.9001 15.2C20.2031 14.9727 20.6085 14.9362 20.9473 15.1056Z" fill="black"/>
</svg>
