<svg width="32" height="32" viewBox="0 0 32 32" fill="none" xmlns="http://www.w3.org/2000/svg">
<path fill-rule="evenodd" clip-rule="evenodd" d="M16 12.5C16.5523 12.5 17 12.9477 17 13.5V27C17 27.5523 16.5523 28 16 28C15.4477 28 15 27.5523 15 27V13.5C15 12.9477 15.4477 12.5 16 12.5Z" fill="#6C5CE7"/>
<path fill-rule="evenodd" clip-rule="evenodd" d="M16 4C16.5523 4 17 4.44772 17 5V8.5C17 9.05228 16.5523 9.5 16 9.5C15.4477 9.5 15 9.05228 15 8.5V5C15 4.44772 15.4477 4 16 4Z" fill="#6C5CE7"/>
<path fill-rule="evenodd" clip-rule="evenodd" d="M16 9.5C15.1716 9.5 14.5 10.1716 14.5 11C14.5 11.8284 15.1716 12.5 16 12.5C16.8284 12.5 17.5 11.8284 17.5 11C17.5 10.1716 16.8284 9.5 16 9.5ZM12.5 11C12.5 9.067 14.067 7.5 16 7.5C17.933 7.5 19.5 9.067 19.5 11C19.5 12.933 17.933 14.5 16 14.5C14.067 14.5 12.5 12.933 12.5 11Z" fill="#6C5CE7"/>
<path fill-rule="evenodd" clip-rule="evenodd" d="M25 22.5C25.5523 22.5 26 22.9477 26 23.5V27C26 27.5523 25.5523 28 25 28C24.4477 28 24 27.5523 24 27V23.5C24 22.9477 24.4477 22.5 25 22.5Z" fill="#6C5CE7"/>
<path fill-rule="evenodd" clip-rule="evenodd" d="M25 4C25.5523 4 26 4.44772 26 5V18.5C26 19.0523 25.5523 19.5 25 19.5C24.4477 19.5 24 19.0523 24 18.5V5C24 4.44772 24.4477 4 25 4Z" fill="#6C5CE7"/>
<path fill-rule="evenodd" clip-rule="evenodd" d="M25 19.5C24.1716 19.5 23.5 20.1716 23.5 21C23.5 21.8284 24.1716 22.5 25 22.5C25.8284 22.5 26.5 21.8284 26.5 21C26.5 20.1716 25.8284 19.5 25 19.5ZM21.5 21C21.5 19.067 23.067 17.5 25 17.5C26.933 17.5 28.5 19.067 28.5 21C28.5 22.933 26.933 24.5 25 24.5C23.067 24.5 21.5 22.933 21.5 21Z" fill="#6C5CE7"/>
<path fill-rule="evenodd" clip-rule="evenodd" d="M7 18.5C7.55228 18.5 8 18.9477 8 19.5V27C8 27.5523 7.55228 28 7 28C6.44772 28 6 27.5523 6 27V19.5C6 18.9477 6.44772 18.5 7 18.5Z" fill="#6C5CE7"/>
<path fill-rule="evenodd" clip-rule="evenodd" d="M7 4C7.55228 4 8 4.44772 8 5V14.5C8 15.0523 7.55228 15.5 7 15.5C6.44772 15.5 6 15.0523 6 14.5V5C6 4.44772 6.44772 4 7 4Z" fill="#6C5CE7"/>
<path fill-rule="evenodd" clip-rule="evenodd" d="M7 15.5C6.17157 15.5 5.5 16.1716 5.5 17C5.5 17.8284 6.17157 18.5 7 18.5C7.82843 18.5 8.5 17.8284 8.5 17C8.5 16.1716 7.82843 15.5 7 15.5ZM3.5 17C3.5 15.067 5.067 13.5 7 13.5C8.933 13.5 10.5 15.067 10.5 17C10.5 18.933 8.933 20.5 7 20.5C5.067 20.5 3.5 18.933 3.5 17Z" fill="#6C5CE7"/>
</svg>
