<svg width="33" height="32" viewBox="0 0 33 32" fill="none" xmlns="http://www.w3.org/2000/svg">
<path fill-rule="evenodd" clip-rule="evenodd" d="M16.5 13.5C14.2909 13.5 12.5 15.2909 12.5 17.5C12.5 19.7091 14.2909 21.5 16.5 21.5C18.7091 21.5 20.5 19.7091 20.5 17.5C20.5 15.2909 18.7091 13.5 16.5 13.5ZM10.5 17.5C10.5 14.1863 13.1863 11.5 16.5 11.5C19.8137 11.5 22.5 14.1863 22.5 17.5C22.5 20.8137 19.8137 23.5 16.5 23.5C13.1863 23.5 10.5 20.8137 10.5 17.5Z" fill="black"/>
<path fill-rule="evenodd" clip-rule="evenodd" d="M27.9082 16.1836C27.0059 15.7324 26.0105 15.4983 25.0017 15.5C24.4494 15.5009 24.0009 15.054 24 14.5017C23.9991 13.9494 24.446 13.5009 24.9983 13.5C26.3188 13.4978 27.6216 13.8042 28.8026 14.3947C29.9837 14.9853 31.0105 15.8436 31.801 16.9013C32.1316 17.3437 32.041 17.9704 31.5987 18.301C31.1563 18.6316 30.5296 18.5411 30.199 18.0987C29.595 17.2906 28.8106 16.6348 27.9082 16.1836Z" fill="black"/>
<path fill-rule="evenodd" clip-rule="evenodd" d="M7.99839 15.5C6.98952 15.4983 5.99421 15.7324 5.09185 16.1836C4.18948 16.6348 3.40503 17.2906 2.80106 18.0987C2.47043 18.5411 1.84378 18.6316 1.4014 18.301C0.959018 17.9704 0.868426 17.3437 1.19906 16.9013C1.98958 15.8436 3.01634 14.9853 4.19742 14.3947C5.3785 13.8042 6.68124 13.4978 8.00173 13.5C8.55402 13.5009 9.00098 13.9494 9.00006 14.5017C8.99914 15.054 8.55067 15.5009 7.99839 15.5Z" fill="black"/>
<path fill-rule="evenodd" clip-rule="evenodd" d="M16.5 23.5034C15.1865 23.5034 13.8994 23.8723 12.7853 24.5681C11.6712 25.2639 10.775 26.2587 10.1986 27.439C9.9563 27.9353 9.35753 28.1411 8.86125 27.8988C8.36497 27.6565 8.15911 27.0577 8.40143 26.5614C9.14215 25.0445 10.294 23.7661 11.7259 22.8718C13.1577 21.9776 14.8119 21.5034 16.5 21.5034C18.1882 21.5034 19.8424 21.9776 21.2742 22.8718C22.706 23.7661 23.8579 25.0445 24.5986 26.5614C24.841 27.0577 24.6351 27.6565 24.1388 27.8988C23.6425 28.1411 23.0438 27.9353 22.8014 27.439C22.2251 26.2587 21.3288 25.2639 20.2147 24.5681C19.1007 23.8723 17.8135 23.5034 16.5 23.5034Z" fill="black"/>
<path fill-rule="evenodd" clip-rule="evenodd" d="M8.74117 7.59399C8.18961 7.45258 7.60919 7.47105 7.06774 7.64725C6.52629 7.82346 6.04617 8.15011 5.68347 8.58904C5.32077 9.02798 5.09048 9.56107 5.0195 10.126C4.94852 10.691 5.03978 11.2645 5.28263 11.7795C5.52547 12.2945 5.90987 12.7298 6.3909 13.0344C6.87194 13.3391 7.42974 13.5006 7.99914 13.5C8.55142 13.4994 8.99959 13.9467 9.00015 14.499C9.00071 15.0513 8.55345 15.4994 8.00117 15.5C7.05217 15.501 6.1225 15.2318 5.32078 14.7241C4.51905 14.2163 3.87839 13.4908 3.47365 12.6325C3.0689 11.7741 2.9168 10.8183 3.0351 9.8767C3.1534 8.93511 3.53722 8.04663 4.14172 7.31507C4.74622 6.58351 5.54643 6.03909 6.44884 5.74542C7.35126 5.45176 8.31861 5.42097 9.23788 5.65666C10.1571 5.89235 10.9903 6.38478 11.6401 7.07642C12.2899 7.76805 12.7295 8.63033 12.9074 9.5625C13.011 10.105 12.6551 10.6287 12.1127 10.7323C11.5702 10.8358 11.0464 10.48 10.9429 9.9375C10.8361 9.3782 10.5724 8.86083 10.1825 8.44585C9.79265 8.03087 9.29272 7.73541 8.74117 7.59399Z" fill="black"/>
<path fill-rule="evenodd" clip-rule="evenodd" d="M25.9323 7.64725C25.3909 7.47105 24.8104 7.45258 24.2589 7.59399C23.7073 7.73541 23.2074 8.03087 22.8175 8.44585C22.4276 8.86083 22.1639 9.3782 22.0572 9.9375C21.9536 10.48 21.4299 10.8358 20.8874 10.7323C20.3449 10.6287 19.9891 10.105 20.0926 9.5625C20.2706 8.63033 20.7101 7.76805 21.3599 7.07642C22.0097 6.38478 22.8429 5.89235 23.7622 5.65666C24.6814 5.42097 25.6488 5.45176 26.5512 5.74542C27.4536 6.03909 28.2538 6.58351 28.8583 7.31507C29.4628 8.04663 29.8466 8.93511 29.9649 9.8767C30.0832 10.8183 29.9311 11.7741 29.5264 12.6325C29.1217 13.4908 28.481 14.2163 27.6793 14.7241C26.8775 15.2318 25.9479 15.501 24.9989 15.5C24.4466 15.4994 23.9993 15.0513 23.9999 14.499C24.0005 13.9467 24.4486 13.4994 25.0009 13.5C25.5703 13.5006 26.1281 13.3391 26.6091 13.0344C27.0902 12.7298 27.4746 12.2945 27.7174 11.7795C27.9603 11.2645 28.0515 10.691 27.9805 10.126C27.9096 9.56107 27.6793 9.02798 27.3166 8.58904C26.9539 8.15011 26.4737 7.82346 25.9323 7.64725Z" fill="black"/>
</svg>
